<svg xmlns="http://www.w3.org/2000/svg" viewBox="0 0 330 200"><g><g><g><g><g><line x1="34" x2="29" y1="178" y2="178" fill="#000" stroke="#CCC" stroke-width="1" style="visibility:inherit"/><line x1="34" x2="29" y1="163.167" y2="163.167" fill="#000" stroke="#CCC" stroke-width="1" style="visibility:inherit"/><line x1="34" x2="29" y1="148.333" y2="148.333" fill="#000" stroke="#CCC" stroke-width="1" style="visibility:inherit"/><line x1="34" x2="29" y1="133.5" y2="133.5" fill="#000" stroke="#CCC" stroke-width="1" style="visibility:inherit"/><line x1="34" x2="29" y1="118.667" y2="118.667" fill="#000" stroke="#CCC" stroke-width="1" style="visibility:inherit"/><line x1="34" x2="29" y1="103.833" y2="103.833" fill="#000" stroke="#CCC" stroke-width="1" style="visibility:inherit"/><line x1="34" x2="29" y1="89" y2="89" fill="#000" stroke="#CCC" stroke-width="1" style="visibility:inherit"/><line x1="34" x2="29" y1="74.167" y2="74.167" fill="#000" stroke="#CCC" stroke-width="1" style="visibility:inherit"/><line x1="34" x2="29" y1="59.333" y2="59.333" fill="#000" stroke="#CCC" stroke-width="1" style="visibility:inherit"/><line x1="34" x2="29" y1="44.5" y2="44.5" fill="#000" stroke="#CCC" stroke-width="1" style="visibility:inherit"/><line x1="34" x2="29" y1="29.667" y2="29.667" fill="#000" stroke="#CCC" stroke-width="1" style="visibility:inherit"/><line x1="34" x2="29" y1="14.833" y2="14.833" fill="#000" stroke="#CCC" stroke-width="1" style="visibility:inherit"/><line x1="34" x2="29" y1="0" y2="0" fill="#000" stroke="#CCC" stroke-width="1" style="visibility:inherit"/></g><g><text x="0" y="178" fill="#32313F" stroke="none" stroke-width="1" dx="0em" dy=".3em" transform="translate(24, 0)" style="text-anchor:end;visibility:hidden;font-family:&quot;Helvetica Neue&quot;,sans-serif;font-size:12px;font-weight:200">-5</text><text x="0" y="163.167" fill="#32313F" stroke="none" stroke-width="1" dx="0em" dy=".3em" transform="translate(24, 0)" style="text-anchor:end;visibility:inherit;font-family:&quot;Helvetica Neue&quot;,sans-serif;font-size:12px;font-weight:200">-4</text><text x="0" y="148.333" fill="#32313F" stroke="none" stroke-width="1" dx="0em" dy=".3em" transform="translate(24, 0)" style="text-anchor:end;visibility:hidden;font-family:&quot;Helvetica Neue&quot;,sans-serif;font-size:12px;font-weight:200">-3</text><text x="0" y="133.5" fill="#32313F" stroke="none" stroke-width="1" dx="0em" dy=".3em" transform="translate(24, 0)" style="text-anchor:end;visibility:inherit;font-family:&quot;Helvetica Neue&quot;,sans-serif;font-size:12px;font-weight:200">-2</text><text x="0" y="118.667" fill="#32313F" stroke="none" stroke-width="1" dx="0em" dy=".3em" transform="translate(24, 0)" style="text-anchor:end;visibility:hidden;font-family:&quot;Helvetica Neue&quot;,sans-serif;font-size:12px;font-weight:200">-1</text><text x="0" y="103.833" fill="#32313F" stroke="none" stroke-width="1" dx="0em" dy=".3em" transform="translate(24, 0)" style="text-anchor:end;visibility:inherit;font-family:&quot;Helvetica Neue&quot;,sans-serif;font-size:12px;font-weight:200">0</text><text x="0" y="89" fill="#32313F" stroke="none" stroke-width="1" dx="0em" dy=".3em" transform="translate(24, 0)" style="text-anchor:end;visibility:hidden;font-family:&quot;Helvetica Neue&quot;,sans-serif;font-size:12px;font-weight:200">1</text><text x="0" y="74.167" fill="#32313F" stroke="none" stroke-width="1" dx="0em" dy=".3em" transform="translate(24, 0)" style="text-anchor:end;visibility:inherit;font-family:&quot;Helvetica Neue&quot;,sans-serif;font-size:12px;font-weight:200">2</text><text x="0" y="59.333" fill="#32313F" stroke="none" stroke-width="1" dx="0em" dy=".3em" transform="translate(24, 0)" style="text-anchor:end;visibility:hidden;font-family:&quot;Helvetica Neue&quot;,sans-serif;font-size:12px;font-weight:200">3</text><text x="0" y="44.5" fill="#32313F" stroke="none" stroke-width="1" dx="0em" dy=".3em" transform="translate(24, 0)" style="text-anchor:end;visibility:inherit;font-family:&quot;Helvetica Neue&quot;,sans-serif;font-size:12px;font-weight:200">4</text><text x="0" y="29.667" fill="#32313F" stroke="none" stroke-width="1" dx="0em" dy=".3em" transform="translate(24, 0)" style="text-anchor:end;visibility:hidden;font-family:&quot;Helvetica Neue&quot;,sans-serif;font-size:12px;font-weight:200">5</text><text x="0" y="14.833" fill="#32313F" stroke="none" stroke-width="1" dx="0em" dy=".3em" transform="translate(24, 0)" style="text-anchor:end;visibility:inherit;font-family:&quot;Helvetica Neue&quot;,sans-serif;font-size:12px;font-weight:200">6</text><text x="0" y="0" fill="#32313F" stroke="none" stroke-width="1" dx="0em" dy=".3em" transform="translate(24, 0)" style="text-anchor:end;visibility:hidden;font-family:&quot;Helvetica Neue&quot;,sans-serif;font-size:12px;font-weight:200">7</text></g><line x1="34" x2="34" y1="0" y2="178" fill="#000" stroke="#CCC" stroke-width="1"/></g></g><g clip-path="url(#clip_0)" transform="translate(34, 0)"><clipPath id="clip_0"><rect width="296" height="178"/></clipPath><g><g><g><line x1="0" x2="0" y1="0" y2="178" fill="#000" stroke="#3C3C3C" stroke-width="1" opacity=".25"/><line x1="24.667" x2="24.667" y1="0" y2="178" fill="#000" stroke="#3C3C3C" stroke-width="1" opacity=".25"/><line x1="49.333" x2="49.333" y1="0" y2="178" fill="#000" stroke="#3C3C3C" stroke-width="1" opacity=".25"/><line x1="74" x2="74" y1="0" y2="178" fill="#000" stroke="#3C3C3C" stroke-width="1" opacity=".25"/><line x1="98.667" x2="98.667" y1="0" y2="178" fill="#000" stroke="#3C3C3C" stroke-width="1" opacity=".25"/><line x1="123.333" x2="123.333" y1="0" y2="178" fill="#000" stroke="#3C3C3C" stroke-width="1" opacity=".25"/><line x1="148" x2="148" y1="0" y2="178" fill="#000" stroke="#3C3C3C" stroke-width="1" opacity=".25"/><line x1="172.667" x2="172.667" y1="0" y2="178" fill="#000" stroke="#3C3C3C" stroke-width="1" opacity=".25"/><line x1="197.333" x2="197.333" y1="0" y2="178" fill="#000" stroke="#3C3C3C" stroke-width="1" opacity=".25"/><line x1="222" x2="222" y1="0" y2="178" fill="#000" stroke="#3C3C3C" stroke-width="1" opacity=".25"/><line x1="246.667" x2="246.667" y1="0" y2="178" fill="#000" stroke="#3C3C3C" stroke-width="1" opacity=".25"/><line x1="271.333" x2="271.333" y1="0" y2="178" fill="#000" stroke="#3C3C3C" stroke-width="1" opacity=".25"/><line x1="296" x2="296" y1="0" y2="178" fill="#000" stroke="#3C3C3C" stroke-width="1" opacity=".25"/></g><g><line x1="0" x2="296" y1="178" y2="178" fill="#000" stroke="#3C3C3C" stroke-width="1" opacity=".25"/><line x1="0" x2="296" y1="163.167" y2="163.167" fill="#000" stroke="#3C3C3C" stroke-width="1" opacity=".25"/><line x1="0" x2="296" y1="148.333" y2="148.333" fill="#000" stroke="#3C3C3C" stroke-width="1" opacity=".25"/><line x1="0" x2="296" y1="133.5" y2="133.5" fill="#000" stroke="#3C3C3C" stroke-width="1" opacity=".25"/><line x1="0" x2="296" y1="118.667" y2="118.667" fill="#000" stroke="#3C3C3C" stroke-width="1" opacity=".25"/><line x1="0" x2="296" y1="103.833" y2="103.833" fill="#000" stroke="#3C3C3C" stroke-width="1" opacity=".25"/><line x1="0" x2="296" y1="89" y2="89" fill="#000" stroke="#3C3C3C" stroke-width="1" opacity=".25"/><line x1="0" x2="296" y1="74.167" y2="74.167" fill="#000" stroke="#3C3C3C" stroke-width="1" opacity=".25"/><line x1="0" x2="296" y1="59.333" y2="59.333" fill="#000" stroke="#3C3C3C" stroke-width="1" opacity=".25"/><line x1="0" x2="296" y1="44.5" y2="44.5" fill="#000" stroke="#3C3C3C" stroke-width="1" opacity=".25"/><line x1="0" x2="296" y1="29.667" y2="29.667" fill="#000" stroke="#3C3C3C" stroke-width="1" opacity=".25"/><line x1="0" x2="296" y1="14.833" y2="14.833" fill="#000" stroke="#3C3C3C" stroke-width="1" opacity=".25"/><line x1="0" x2="296" y1="0" y2="0" fill="#000" stroke="#3C3C3C" stroke-width="1" opacity=".25"/></g></g></g><g><g><line x1="0" x2="296" y1="103.833" y2="103.833" fill="#000" stroke="#999" stroke-width="1.5"/></g></g><g><g><line x1="24.667" x2="24.667" y1="0" y2="178" fill="#000" stroke="#999" stroke-width="1.5"/></g></g><g><g><g><g><g><path style="fill:none" fill="none" stroke="#FF7043" stroke-width="2" d="M24.666666666666664,97.1342545201381L29.6,135.70008951363465L34.53333333333333,109.68811235673168L39.46666666666667,29.899835641751565L44.4,55.69671242918692L49.33333333333333,77.10717908571371L54.266666666666666,87.75313292912598L59.2,95.34273684328522L64.13333333333334,103.7895687601471L69.06666666666666,84.8267317262774L74,151.1310710127903L78.93333333333334,115.35198307593785L83.86666666666666,114.92795313339536L88.8,105.40019689314956L93.73333333333333,110.5701453543009L98.66666666666666,115.0851243785542L103.6,118.22998128450104L108.53333333333333,93.2693136709865L113.46666666666667,95.32929263325043L118.4,89.55030711544721L123.33333333333334,86.50155269734955L128.26666666666668,68.58456588500428L133.20000000000002,80.43364569021345L138.13333333333333,97.8300835336806L143.06666666666666,106.85005146747643L148,102.61823022397323L152.93333333333334,117.50393527410743L157.86666666666667,101.80219693945828L162.8,92.72073902237882L167.73333333333332,76.54747435459271L172.66666666666669,98.85512351260894L177.6,102.92118818099166L182.53333333333333,107.22150041453006L187.46666666666667,99.54126546109161L192.4,104.63551354020957L197.33333333333331,110.70887401572811L202.26666666666668,98.64225245124122L207.2,99.98607858683577L212.13333333333333,86.38523402759725L217.06666666666666,94.59597893828578L222,94.43942353479083L226.93333333333334,106.28086879834369L231.86666666666667,128.77692983194945L236.8,121.91843044427283L241.73333333333332,97.71822762834161L246.66666666666669,85.68849655919028L251.6,85.61249352057145L256.53333333333336,53.97036857867346L261.46666666666664,56.35491473358567L266.40000000000003,51.05610753024327"/></g></g></g></g><g opacity=".2"><g><g><g><path style="fill:none" fill="none" stroke="#FF7043" stroke-width="2" d="M24.666666666666664,97.1342545201381L29.6,158.83959050973257L34.53333333333333,84.71661428610483L39.46666666666667,-63.93117777506512L44.4,89.37711476286252L49.33333333333333,106.72556223968665L54.266666666666666,102.97701726046701L59.2,106.40845221032698L64.13333333333334,116.24700512488683L69.06666666666666,56.6691287358602L74,249.9862044652303L78.93333333333334,61.87805938720703L83.86666666666666,114.29329275091489L88.8,91.12722839911778L93.73333333333333,118.31899096568425L98.66666666666666,121.85440860191981L103.6,122.94593584537506L108.53333333333333,55.83464976151785L113.46666666666667,98.41894725958507L118.4,80.88235706090927L123.33333333333334,81.92858827114105L128.26666666666668,41.70967523256937L133.20000000000002,98.20703145861626L138.13333333333333,123.92453422149022L143.06666666666666,120.3799392580986L148,96.27051640550296L152.93333333333334,139.83245476086935L157.86666666666667,78.2496135433515L162.8,79.09856051206589L167.73333333333332,52.28758629163107L172.66666666666669,132.3165898521741L177.6,109.02028437455495L182.53333333333333,113.67196825146675L187.46666666666667,88.0209135810534L192.4,112.27688543995221L197.33333333333331,119.81891457239787L202.26666666666668,80.54232029120126L207.2,102.00181777775288L212.13333333333333,65.98396726449332L217.06666666666666,106.91209627687931L222,94.20459042986234L226.93333333333334,124.04303667942683L231.86666666666667,162.52102136611938L236.8,111.63068136572838L241.73333333333332,61.41792341073355L246.66666666666669,67.64389995733896L251.6,85.4984889626503L256.53333333333336,6.507181167602539L261.46666666666664,59.93173396587372L266.40000000000003,43.1078967253367"/></g></g></g></g></g></g><g clip-path="url(#clip_1)" transform="translate(34, 178)"><clipPath id="clip_1"><rect width="296" height="22"/></clipPath><g><g><line x1="0" x2="0" y1="0" y2="5" fill="#000" stroke="#CCC" stroke-width="1" style="visibility:inherit"/><line x1="24.667" x2="24.667" y1="0" y2="5" fill="#000" stroke="#CCC" stroke-width="1" style="visibility:inherit"/><line x1="49.333" x2="49.333" y1="0" y2="5" fill="#000" stroke="#CCC" stroke-width="1" style="visibility:inherit"/><line x1="74" x2="74" y1="0" y2="5" fill="#000" stroke="#CCC" stroke-width="1" style="visibility:inherit"/><line x1="98.667" x2="98.667" y1="0" y2="5" fill="#000" stroke="#CCC" stroke-width="1" style="visibility:inherit"/><line x1="123.333" x2="123.333" y1="0" y2="5" fill="#000" stroke="#CCC" stroke-width="1" style="visibility:inherit"/><line x1="148" x2="148" y1="0" y2="5" fill="#000" stroke="#CCC" stroke-width="1" style="visibility:inherit"/><line x1="172.667" x2="172.667" y1="0" y2="5" fill="#000" stroke="#CCC" stroke-width="1" style="visibility:inherit"/><line x1="197.333" x2="197.333" y1="0" y2="5" fill="#000" stroke="#CCC" stroke-width="1" style="visibility:inherit"/><line x1="222" x2="222" y1="0" y2="5" fill="#000" stroke="#CCC" stroke-width="1" style="visibility:inherit"/><line x1="246.667" x2="246.667" y1="0" y2="5" fill="#000" stroke="#CCC" stroke-width="1" style="visibility:inherit"/><line x1="271.333" x2="271.333" y1="0" y2="5" fill="#000" stroke="#CCC" stroke-width="1" style="visibility:inherit"/><line x1="296" x2="296" y1="0" y2="5" fill="#000" stroke="#CCC" stroke-width="1" style="visibility:inherit"/></g><g><text x="0" y="0" fill="#32313F" stroke="none" stroke-width="1" dx="0em" dy=".95em" transform="translate(0, 8)" style="text-anchor:middle;visibility:hidden;font-family:&quot;Helvetica Neue&quot;,sans-serif;font-size:12px;font-weight:200">-5</text><text x="24.667" y="0" fill="#32313F" stroke="none" stroke-width="1" dx="0em" dy=".95em" transform="translate(0, 8)" style="text-anchor:middle;visibility:inherit;font-family:&quot;Helvetica Neue&quot;,sans-serif;font-size:12px;font-weight:200">0</text><text x="49.333" y="0" fill="#32313F" stroke="none" stroke-width="1" dx="0em" dy=".95em" transform="translate(0, 8)" style="text-anchor:middle;visibility:inherit;font-family:&quot;Helvetica Neue&quot;,sans-serif;font-size:12px;font-weight:200">5</text><text x="74" y="0" fill="#32313F" stroke="none" stroke-width="1" dx="0em" dy=".95em" transform="translate(0, 8)" style="text-anchor:middle;visibility:inherit;font-family:&quot;Helvetica Neue&quot;,sans-serif;font-size:12px;font-weight:200">10</text><text x="98.667" y="0" fill="#32313F" stroke="none" stroke-width="1" dx="0em" dy=".95em" transform="translate(0, 8)" style="text-anchor:middle;visibility:inherit;font-family:&quot;Helvetica Neue&quot;,sans-serif;font-size:12px;font-weight:200">15</text><text x="123.333" y="0" fill="#32313F" stroke="none" stroke-width="1" dx="0em" dy=".95em" transform="translate(0, 8)" style="text-anchor:middle;visibility:inherit;font-family:&quot;Helvetica Neue&quot;,sans-serif;font-size:12px;font-weight:200">20</text><text x="148" y="0" fill="#32313F" stroke="none" stroke-width="1" dx="0em" dy=".95em" transform="translate(0, 8)" style="text-anchor:middle;visibility:inherit;font-family:&quot;Helvetica Neue&quot;,sans-serif;font-size:12px;font-weight:200">25</text><text x="172.667" y="0" fill="#32313F" stroke="none" stroke-width="1" dx="0em" dy=".95em" transform="translate(0, 8)" style="text-anchor:middle;visibility:inherit;font-family:&quot;Helvetica Neue&quot;,sans-serif;font-size:12px;font-weight:200">30</text><text x="197.333" y="0" fill="#32313F" stroke="none" stroke-width="1" dx="0em" dy=".95em" transform="translate(0, 8)" style="text-anchor:middle;visibility:inherit;font-family:&quot;Helvetica Neue&quot;,sans-serif;font-size:12px;font-weight:200">35</text><text x="222" y="0" fill="#32313F" stroke="none" stroke-width="1" dx="0em" dy=".95em" transform="translate(0, 8)" style="text-anchor:middle;visibility:inherit;font-family:&quot;Helvetica Neue&quot;,sans-serif;font-size:12px;font-weight:200">40</text><text x="246.667" y="0" fill="#32313F" stroke="none" stroke-width="1" dx="0em" dy=".95em" transform="translate(0, 8)" style="text-anchor:middle;visibility:inherit;font-family:&quot;Helvetica Neue&quot;,sans-serif;font-size:12px;font-weight:200">45</text><text x="271.333" y="0" fill="#32313F" stroke="none" stroke-width="1" dx="0em" dy=".95em" transform="translate(0, 8)" style="text-anchor:middle;visibility:inherit;font-family:&quot;Helvetica Neue&quot;,sans-serif;font-size:12px;font-weight:200">50</text><text x="296" y="0" fill="#32313F" stroke="none" stroke-width="1" dx="0em" dy=".95em" transform="translate(0, 8)" style="text-anchor:middle;visibility:hidden;font-family:&quot;Helvetica Neue&quot;,sans-serif;font-size:12px;font-weight:200">55</text></g><line x1="0" x2="296" y1="0" y2="0" fill="#000" stroke="#CCC" stroke-width="1"/></g></g></g></g></svg>